<svg xmlns="http://www.w3.org/2000/svg" version="1.1" xmlns:xlink="http://www.w3.org/1999/xlink" xmlns:svgjs="http://svgjs.dev/svgjs" width="1000" height="1000" viewBox="0 0 1000 1000"><rect width="1000" height="1000" fill="#ffffff"></rect><g transform="matrix(0.7,0,0,0.7,149.57576512387595,402.94995875158673)"><svg viewBox="0 0 396 110" data-background-color="#ffffff" preserveAspectRatio="xMidYMid meet" height="277" width="1000" xmlns="http://www.w3.org/2000/svg" xmlns:xlink="http://www.w3.org/1999/xlink"><g id="tight-bounds" transform="matrix(1,0,0,1,0.23999572992158846,0.05675367367436479)"><svg viewBox="0 0 395.52 109.88649265265128" height="109.88649265265128" width="395.52"><g><svg viewBox="0 0 499.805833837713 138.8600073011734" height="109.88649265265128" width="395.52"><g transform="matrix(1,0,0,1,104.28583383771303,42.90975779474762)"><svg viewBox="0 0 395.52 53.04049171167815" height="53.04049171167815" width="395.52"><g id="textblocktransform"><svg viewBox="0 0 395.52 53.04049171167815" height="53.04049171167815" width="395.52" id="textblock"><g><svg viewBox="0 0 395.52 53.04049171167815" height="53.04049171167815" width="395.52"><g transform="matrix(1,0,0,1,0,0)"><svg width="395.52" viewBox="3.5 -35.5 268.42999267578125 36" height="53.04049171167815" data-palette-color="#50a060"><path d="M11.2 0L4.75 0Q4.2 0 3.85-0.35 3.5-0.7 3.5-1.25L3.5-1.25 3.5-33.75Q3.5-34.3 3.85-34.65 4.2-35 4.75-35L4.75-35 11.2-35Q11.75-35 12.13-34.65 12.5-34.3 12.5-33.75L12.5-33.75 12.5-21.7 24.8-21.7 24.8-33.75Q24.8-34.3 25.15-34.65 25.5-35 26.05-35L26.05-35 32.5-35Q33.05-35 33.4-34.65 33.75-34.3 33.75-33.75L33.75-33.75 33.75-1.25Q33.75-0.75 33.4-0.38 33.05 0 32.5 0L32.5 0 26.05 0Q25.5 0 25.15-0.38 24.8-0.75 24.8-1.25L24.8-1.25 24.8-13.7 12.5-13.7 12.5-1.25Q12.5-0.75 12.13-0.38 11.75 0 11.2 0L11.2 0ZM65.75 0L42 0Q41.45 0 41.1-0.38 40.75-0.75 40.75-1.25L40.75-1.25 40.75-33.75Q40.75-34.3 41.1-34.65 41.45-35 42-35L42-35 65.35-35Q65.9-35 66.25-34.65 66.6-34.3 66.6-33.75L66.6-33.75 66.6-29.05Q66.6-28.5 66.25-28.15 65.9-27.8 65.35-27.8L65.35-27.8 49.4-27.8 49.4-21.05 64.25-21.05Q64.8-21.05 65.15-20.68 65.5-20.3 65.5-19.75L65.5-19.75 65.5-15.4Q65.5-14.9 65.15-14.53 64.8-14.15 64.25-14.15L64.25-14.15 49.4-14.15 49.4-7.2 65.75-7.2Q66.3-7.2 66.65-6.85 67-6.5 67-5.95L67-5.95 67-1.25Q67-0.75 66.65-0.38 66.3 0 65.75 0L65.75 0ZM96.95 0L73.95 0Q73.4 0 73.05-0.38 72.7-0.75 72.7-1.25L72.7-1.25 72.7-33.75Q72.7-34.3 73.05-34.65 73.4-35 73.95-35L73.95-35 80.55-35Q81.1-35 81.45-34.65 81.8-34.3 81.8-33.75L81.8-33.75 81.8-7.55 96.95-7.55Q97.5-7.55 97.85-7.18 98.2-6.8 98.2-6.25L98.2-6.25 98.2-1.25Q98.2-0.75 97.85-0.38 97.5 0 96.95 0L96.95 0ZM110.54 0L103.79 0Q103.24 0 102.89-0.38 102.54-0.75 102.54-1.25L102.54-1.25 102.54-33.75Q102.54-34.3 102.89-34.65 103.24-35 103.79-35L103.79-35 117.79-35Q121.94-35 125.02-33.73 128.09-32.45 129.82-29.9 131.54-27.35 131.54-23.45L131.54-23.45Q131.54-19.6 129.82-17.1 128.09-14.6 125.02-13.4 121.94-12.2 117.79-12.2L117.79-12.2 111.84-12.2 111.84-1.25Q111.84-0.75 111.47-0.38 111.09 0 110.54 0L110.54 0ZM111.69-28.05L111.69-19.1 117.54-19.1Q119.69-19.1 120.97-20.2 122.24-21.3 122.24-23.55L122.24-23.55Q122.24-25.45 121.14-26.75 120.04-28.05 117.54-28.05L117.54-28.05 111.69-28.05ZM153.29 0L137.59 0Q137.04 0 136.69-0.38 136.34-0.75 136.34-1.25L136.34-1.25 136.34-33.75Q136.34-34.3 136.69-34.65 137.04-35 137.59-35L137.59-35 152.84-35Q157.14-35 159.89-33.8 162.64-32.6 163.97-30.38 165.29-28.15 165.29-25.1L165.29-25.1Q165.29-23.3 164.62-21.93 163.94-20.55 162.97-19.65 161.99-18.75 161.14-18.35L161.14-18.35Q163.04-17.45 164.52-15.4 165.99-13.35 165.99-10.6L165.99-10.6Q165.99-7.3 164.52-4.93 163.04-2.55 160.22-1.28 157.39 0 153.29 0L153.29 0ZM145.34-14.75L145.34-6.5 152.29-6.5Q154.44-6.5 155.54-7.75 156.64-9 156.64-10.6L156.64-10.6Q156.64-12.35 155.52-13.55 154.39-14.75 152.29-14.75L152.29-14.75 145.34-14.75ZM145.34-28.5L145.34-21.1 151.84-21.1Q153.89-21.1 154.92-22.18 155.94-23.25 155.94-24.85L155.94-24.85Q155.94-26.45 154.92-27.48 153.89-28.5 151.84-28.5L151.84-28.5 145.34-28.5ZM185.84 0.5L185.84 0.5Q181.24 0.5 177.84-1 174.44-2.5 172.54-5.53 170.64-8.55 170.44-13.1L170.44-13.1Q170.39-15.25 170.39-17.43 170.39-19.6 170.44-21.75L170.44-21.75Q170.64-26.25 172.56-29.33 174.49-32.4 177.91-33.95 181.34-35.5 185.84-35.5L185.84-35.5Q190.39-35.5 193.79-33.95 197.19-32.4 199.14-29.33 201.09-26.25 201.24-21.75L201.24-21.75Q201.34-19.6 201.34-17.43 201.34-15.25 201.24-13.1L201.24-13.1Q201.09-8.55 199.16-5.53 197.24-2.5 193.84-1 190.44 0.5 185.84 0.5ZM185.84-6.7L185.84-6.7Q188.49-6.7 190.16-8.3 191.84-9.9 191.94-13.4L191.94-13.4Q192.04-15.6 192.04-17.55 192.04-19.5 191.94-21.6L191.94-21.6Q191.84-23.95 191.06-25.43 190.29-26.9 188.94-27.6 187.59-28.3 185.84-28.3L185.84-28.3Q184.14-28.3 182.79-27.6 181.44-26.9 180.64-25.43 179.84-23.95 179.74-21.6L179.74-21.6Q179.69-19.5 179.69-17.55 179.69-15.6 179.74-13.4L179.74-13.4Q179.89-9.9 181.56-8.3 183.24-6.7 185.84-6.7ZM221.44 0.5L221.44 0.5Q216.84 0.5 213.44-1 210.04-2.5 208.14-5.53 206.24-8.55 206.04-13.1L206.04-13.1Q205.99-15.25 205.99-17.43 205.99-19.6 206.04-21.75L206.04-21.75Q206.24-26.25 208.16-29.33 210.09-32.4 213.51-33.95 216.94-35.5 221.44-35.5L221.44-35.5Q225.99-35.5 229.39-33.95 232.79-32.4 234.74-29.33 236.69-26.25 236.84-21.75L236.84-21.75Q236.94-19.6 236.94-17.43 236.94-15.25 236.84-13.1L236.84-13.1Q236.69-8.55 234.76-5.53 232.84-2.5 229.44-1 226.04 0.5 221.44 0.5ZM221.44-6.7L221.44-6.7Q224.09-6.7 225.76-8.3 227.44-9.9 227.54-13.4L227.54-13.4Q227.64-15.6 227.64-17.55 227.64-19.5 227.54-21.6L227.54-21.6Q227.44-23.95 226.66-25.43 225.89-26.9 224.54-27.6 223.19-28.3 221.44-28.3L221.44-28.3Q219.74-28.3 218.39-27.6 217.04-26.9 216.24-25.43 215.44-23.95 215.34-21.6L215.34-21.6Q215.29-19.5 215.29-17.55 215.29-15.6 215.34-13.4L215.34-13.4Q215.49-9.9 217.16-8.3 218.84-6.7 221.44-6.7ZM250.28 0L243.98 0Q243.43 0 243.08-0.38 242.73-0.75 242.73-1.25L242.73-1.25 242.73-33.75Q242.73-34.3 243.08-34.65 243.43-35 243.98-35L243.98-35 250.28-35Q250.83-35 251.18-34.65 251.53-34.3 251.53-33.75L251.53-33.75 251.53-22.65 260.78-34.05Q260.98-34.35 261.46-34.68 261.93-35 262.73-35L262.73-35 269.93-35Q270.38-35 270.68-34.68 270.98-34.35 270.98-33.95L270.98-33.95Q270.98-33.6 270.83-33.35L270.83-33.35 258.83-18.25 271.73-1.65Q271.93-1.45 271.93-1.05L271.93-1.05Q271.93-0.65 271.63-0.33 271.33 0 270.88 0L270.88 0 263.43 0Q262.53 0 262.06-0.4 261.58-0.8 261.43-1L261.43-1 251.53-13.35 251.53-1.25Q251.53-0.75 251.18-0.38 250.83 0 250.28 0L250.28 0Z" opacity="1" transform="matrix(1,0,0,1,0,0)" fill="#50a060" class="wordmark-text-0" data-fill-palette-color="primary" id="text-0"></path></svg></g></svg></g></svg></g></svg></g><g><svg viewBox="0 0 91.7642467163869 138.8600073011734" height="138.8600073011734" width="91.7642467163869"><g><svg version="1.1" xmlns="http://www.w3.org/2000/svg" xmlns:xlink="http://www.w3.org/1999/xlink" x="0" y="0" viewBox="0 0 66.08399963378906 100" enable-background="new 0 0 66.084 100" xml:space="preserve" width="91.7642467163869" height="138.8600073011734" class="icon-icon-0" data-fill-palette-color="accent" id="icon-0"><path d="M19.354 0L0 6.911v66.004L47.722 100l4.081-1.458V95.92l10.201-3.644v2.623l4.08-1.457V26.551L19.354 0zM62.003 87.944l-10.2 3.643-0.001-59.936L9.755 7.761l9.209-3.29 43.039 24.455V87.944z" fill="#50a060" data-fill-palette-color="accent"></path></svg></g></svg></g></svg></g><defs></defs></svg><rect width="395.52" height="109.88649265265128" fill="none" stroke="none" visibility="hidden"></rect></g></svg></g></svg>